<svg version="1.1" xmlns="http://www.w3.org/2000/svg" xmlns:xlink="http://www.w3.org/1999/xlink" x="0px" y="0px" width="100%" height="100%"
	 viewBox="0 0 612 612" style="enable-background:new 0 0 612 612;" xml:space="preserve">
<path d="M528.9,83.1H83.1c-27.2,0-49.5,22.3-49.5,49.5v74.3h49.5v-74.3h445.8v346.7H355.5v49.5h173.4c27.2,0,49.5-22.3,49.5-49.5
	V132.6C578.4,105.4,556.1,83.1,528.9,83.1z M33.6,454.6v74.3h74.3C107.9,486.8,75.7,454.6,33.6,454.6z M33.6,355.5v49.5
	c69.3,0,123.8,54.5,123.8,123.8h49.5C206.9,432.3,130.2,355.5,33.6,355.5z M33.6,256.5V306c123.8,0,222.9,99.1,222.9,222.9H306
	C306,377.8,184.6,256.5,33.6,256.5z"/>
</svg>
